<svg xmlns="http://www.w3.org/2000/svg" viewBox="0 0 2400 600" preserveAspectRatio="xMidYMax slice"><g fill="#000"><rect x="0" y="575" width="2400" height="25" rx="0"/><polygon points="30,440 39,507 21,507"/><polygon points="30,485 46,552 14,552"/><polygon points="30,530 52,597 8,597"/><rect x="27" y="581" width="5" height="19" rx="0"/><polygon points="74,458 83,518 65,518"/><polygon points="74,498 90,557 58,557"/><polygon points="74,538 96,597 52,597"/><rect x="71" y="583" width="5" height="17" rx="0"/><polygon points="118,476 127,528 109,528"/><polygon points="118,511 134,563 102,563"/><polygon points="118,545 140,598 96,598"/><rect x="115" y="585" width="5" height="15" rx="0"/><polygon points="162,444 171,510 153,510"/><polygon points="162,488 178,553 146,553"/><polygon points="162,531 184,597 140,597"/><rect x="159" y="581" width="5" height="19" rx="0"/><polygon points="206,462 215,520 197,520"/><polygon points="206,501 222,559 190,559"/><polygon points="206,539 228,597 184,597"/><rect x="203" y="583" width="5" height="17" rx="0"/><polygon points="250,480 259,530 241,530"/><polygon points="250,514 266,564 234,564"/><polygon points="250,547 272,598 228,598"/><rect x="247" y="586" width="5" height="14" rx="0"/><polygon points="294,448 303,512 285,512"/><polygon points="294,491 310,554 278,554"/><polygon points="294,533 316,597 272,597"/><rect x="291" y="582" width="5" height="18" rx="0"/><polygon points="338,466 347,522 329,522"/><polygon points="338,504 354,560 322,560"/><polygon points="338,541 360,597 316,597"/><rect x="335" y="584" width="5" height="16" rx="0"/><polygon points="382,434 391,504 373,504"/><polygon points="382,480 398,550 366,550"/><polygon points="382,527 404,597 360,597"/><rect x="379" y="580" width="5" height="20" rx="0"/><polygon points="426,452 435,514 417,514"/><polygon points="426,493 442,556 410,556"/><polygon points="426,535 448,597 404,597"/><rect x="423" y="582" width="5" height="18" rx="0"/><polygon points="470,470 479,525 461,525"/><polygon points="470,506 486,561 454,561"/><polygon points="470,543 492,597 448,597"/><rect x="467" y="584" width="5" height="16" rx="0"/><polygon points="514,438 523,506 505,506"/><polygon points="514,483 530,551 498,551"/><polygon points="514,529 536,597 492,597"/><rect x="511" y="581" width="5" height="19" rx="0"/><polygon points="558,456 567,516 549,516"/><polygon points="558,496 574,557 542,557"/><polygon points="558,537 580,597 536,597"/><rect x="555" y="583" width="5" height="17" rx="0"/><polygon points="602,474 611,527 593,527"/><polygon points="602,509 618,562 586,562"/><polygon points="602,545 624,597 580,597"/><rect x="599" y="585" width="5" height="15" rx="0"/><polygon points="646,442 655,508 637,508"/><polygon points="646,486 662,553 630,553"/><polygon points="646,530 668,597 624,597"/><rect x="643" y="581" width="5" height="19" rx="0"/><polygon points="690,460 699,519 681,519"/><polygon points="690,499 706,558 674,558"/><polygon points="690,538 712,597 668,597"/><rect x="687" y="583" width="5" height="17" rx="0"/><polygon points="734,478 743,529 725,529"/><polygon points="734,512 750,563 718,563"/><polygon points="734,546 756,598 712,598"/><rect x="731" y="585" width="5" height="15" rx="0"/><polygon points="778,446 787,511 769,511"/><polygon points="778,489 794,554 762,554"/><polygon points="778,532 800,597 756,597"/><rect x="775" y="582" width="5" height="18" rx="0"/><polygon points="1640,460 1649,519 1631,519"/><polygon points="1640,499 1656,558 1624,558"/><polygon points="1640,538 1662,597 1618,597"/><rect x="1637" y="583" width="5" height="17" rx="0"/><polygon points="1684,478 1693,529 1675,529"/><polygon points="1684,512 1700,563 1668,563"/><polygon points="1684,546 1706,598 1662,598"/><rect x="1681" y="585" width="5" height="15" rx="0"/><polygon points="1728,446 1737,511 1719,511"/><polygon points="1728,489 1744,554 1712,554"/><polygon points="1728,532 1750,597 1706,597"/><rect x="1725" y="582" width="5" height="18" rx="0"/><polygon points="1772,464 1781,521 1763,521"/><polygon points="1772,502 1788,559 1756,559"/><polygon points="1772,540 1794,597 1750,597"/><rect x="1769" y="584" width="5" height="16" rx="0"/><polygon points="1816,432 1825,503 1807,503"/><polygon points="1816,479 1832,550 1800,550"/><polygon points="1816,526 1838,597 1794,597"/><rect x="1813" y="580" width="5" height="20" rx="0"/><polygon points="1860,450 1869,513 1851,513"/><polygon points="1860,492 1876,555 1844,555"/><polygon points="1860,534 1882,597 1838,597"/><rect x="1857" y="582" width="5" height="18" rx="0"/><polygon points="1904,468 1913,523 1895,523"/><polygon points="1904,505 1920,560 1888,560"/><polygon points="1904,542 1926,597 1882,597"/><rect x="1901" y="584" width="5" height="16" rx="0"/><polygon points="1948,436 1957,505 1939,505"/><polygon points="1948,482 1964,551 1932,551"/><polygon points="1948,528 1970,597 1926,597"/><rect x="1945" y="580" width="5" height="20" rx="0"/><polygon points="1992,454 2001,515 1983,515"/><polygon points="1992,495 2008,556 1976,556"/><polygon points="1992,536 2014,597 1970,597"/><rect x="1989" y="582" width="5" height="18" rx="0"/><polygon points="2036,472 2045,526 2027,526"/><polygon points="2036,508 2052,562 2020,562"/><polygon points="2036,544 2058,597 2014,597"/><rect x="2033" y="585" width="5" height="15" rx="0"/><polygon points="2080,440 2089,507 2071,507"/><polygon points="2080,485 2096,552 2064,552"/><polygon points="2080,530 2102,597 2058,597"/><rect x="2077" y="581" width="5" height="19" rx="0"/><polygon points="2124,458 2133,518 2115,518"/><polygon points="2124,498 2140,557 2108,557"/><polygon points="2124,538 2146,597 2102,597"/><rect x="2121" y="583" width="5" height="17" rx="0"/><polygon points="2168,476 2177,528 2159,528"/><polygon points="2168,511 2184,563 2152,563"/><polygon points="2168,545 2190,598 2146,598"/><rect x="2165" y="585" width="5" height="15" rx="0"/><polygon points="2212,444 2221,510 2203,510"/><polygon points="2212,488 2228,553 2196,553"/><polygon points="2212,531 2234,597 2190,597"/><rect x="2209" y="581" width="5" height="19" rx="0"/><polygon points="2256,462 2265,520 2247,520"/><polygon points="2256,501 2272,559 2240,559"/><polygon points="2256,539 2278,597 2234,597"/><rect x="2253" y="583" width="5" height="17" rx="0"/><polygon points="2300,480 2309,530 2291,530"/><polygon points="2300,514 2316,564 2284,564"/><polygon points="2300,547 2322,598 2278,598"/><rect x="2297" y="586" width="5" height="14" rx="0"/><polygon points="2344,448 2353,512 2335,512"/><polygon points="2344,491 2360,554 2328,554"/><polygon points="2344,533 2366,597 2322,597"/><rect x="2341" y="582" width="5" height="18" rx="0"/><polygon points="2388,466 2397,522 2379,522"/><polygon points="2388,504 2404,560 2372,560"/><polygon points="2388,541 2410,597 2366,597"/><rect x="2385" y="584" width="5" height="16" rx="0"/></g></svg>
