<svg xmlns="http://www.w3.org/2000/svg" viewBox="0 0 2400 600" preserveAspectRatio="xMidYMax slice"><g fill="#000"><rect x="937" y="220" width="13" height="290" rx="0"/><rect x="970" y="220" width="13" height="290" rx="0"/><rect x="937" y="258" width="46" height="20" rx="0"/><rect x="937" y="332" width="46" height="20" rx="0"/><rect x="937" y="408" width="46" height="20" rx="0"/><rect x="1417" y="220" width="13" height="290" rx="0"/><rect x="1450" y="220" width="13" height="290" rx="0"/><rect x="1417" y="258" width="46" height="20" rx="0"/><rect x="1417" y="332" width="46" height="20" rx="0"/><rect x="1417" y="408" width="46" height="20" rx="0"/><rect x="460" y="470" width="1480" height="16" rx="0"/><path d="M960,220 Q1200,400 1440,220" fill="none" stroke="#000" stroke-width="9" stroke-linecap="round"/><path d="M460,460 Q710,200 960,220" fill="none" stroke="#000" stroke-width="9" stroke-linecap="round"/><path d="M1440,220 Q1690,200 1940,460" fill="none" stroke="#000" stroke-width="9" stroke-linecap="round"/><line x1="987" y1="239" x2="987" y2="470" stroke="#000" stroke-width="3" stroke-linecap="round"/><line x1="1013" y1="256" x2="1013" y2="470" stroke="#000" stroke-width="3" stroke-linecap="round"/><line x1="1040" y1="270" x2="1040" y2="470" stroke="#000" stroke-width="3" stroke-linecap="round"/><line x1="1067" y1="282" x2="1067" y2="470" stroke="#000" stroke-width="3" stroke-linecap="round"/><line x1="1093" y1="292" x2="1093" y2="470" stroke="#000" stroke-width="3" stroke-linecap="round"/><line x1="1120" y1="300" x2="1120" y2="470" stroke="#000" stroke-width="3" stroke-linecap="round"/><line x1="1147" y1="306" x2="1147" y2="470" stroke="#000" stroke-width="3" stroke-linecap="round"/><line x1="1173" y1="309" x2="1173" y2="470" stroke="#000" stroke-width="3" stroke-linecap="round"/><line x1="1200" y1="310" x2="1200" y2="470" stroke="#000" stroke-width="3" stroke-linecap="round"/><line x1="1227" y1="309" x2="1227" y2="470" stroke="#000" stroke-width="3" stroke-linecap="round"/><line x1="1253" y1="306" x2="1253" y2="470" stroke="#000" stroke-width="3" stroke-linecap="round"/><line x1="1280" y1="300" x2="1280" y2="470" stroke="#000" stroke-width="3" stroke-linecap="round"/><line x1="1307" y1="292" x2="1307" y2="470" stroke="#000" stroke-width="3" stroke-linecap="round"/><line x1="1333" y1="282" x2="1333" y2="470" stroke="#000" stroke-width="3" stroke-linecap="round"/><line x1="1360" y1="270" x2="1360" y2="470" stroke="#000" stroke-width="3" stroke-linecap="round"/><line x1="1387" y1="256" x2="1387" y2="470" stroke="#000" stroke-width="3" stroke-linecap="round"/><line x1="1413" y1="239" x2="1413" y2="470" stroke="#000" stroke-width="3" stroke-linecap="round"/></g></svg>
