<svg xmlns="http://www.w3.org/2000/svg" viewBox="0 0 2400 600" preserveAspectRatio="xMidYMax slice"><g fill="#000"><rect x="1122" y="350" width="156" height="70" rx="0"/><path d="M1105,350 A95,95 0 0 1 1295,350 Z"/><rect x="1189" y="221" width="23" height="38" rx="0"/><circle cx="1200" cy="217" r="8"/><rect x="870" y="350" width="660" height="70" rx="0"/><rect x="830" y="420" width="740" height="140" rx="0"/><rect x="900" y="300" width="120" height="50" rx="0"/><rect x="1380" y="300" width="120" height="50" rx="0"/><line x1="662" y1="150" x2="730" y2="150" stroke="#000" stroke-width="5" stroke-linecap="round"/><circle cx="741" cy="150" r="5"/><line x1="660" y1="160" x2="721" y2="189" stroke="#000" stroke-width="5" stroke-linecap="round"/><circle cx="731" cy="194" r="5"/><line x1="654" y1="168" x2="696" y2="220" stroke="#000" stroke-width="5" stroke-linecap="round"/><circle cx="703" cy="229" r="5"/><line x1="645" y1="172" x2="660" y2="238" stroke="#000" stroke-width="5" stroke-linecap="round"/><circle cx="662" cy="248" r="5"/><line x1="635" y1="172" x2="620" y2="238" stroke="#000" stroke-width="5" stroke-linecap="round"/><circle cx="618" cy="248" r="5"/><line x1="626" y1="168" x2="584" y2="220" stroke="#000" stroke-width="5" stroke-linecap="round"/><circle cx="577" cy="229" r="5"/><line x1="620" y1="160" x2="559" y2="189" stroke="#000" stroke-width="5" stroke-linecap="round"/><circle cx="549" cy="194" r="5"/><line x1="618" y1="150" x2="550" y2="150" stroke="#000" stroke-width="5" stroke-linecap="round"/><circle cx="539" cy="150" r="5"/><line x1="620" y1="140" x2="559" y2="111" stroke="#000" stroke-width="5" stroke-linecap="round"/><circle cx="549" cy="106" r="5"/><line x1="626" y1="132" x2="584" y2="80" stroke="#000" stroke-width="5" stroke-linecap="round"/><circle cx="577" cy="71" r="5"/><line x1="635" y1="128" x2="620" y2="62" stroke="#000" stroke-width="5" stroke-linecap="round"/><circle cx="618" cy="52" r="5"/><line x1="645" y1="128" x2="660" y2="62" stroke="#000" stroke-width="5" stroke-linecap="round"/><circle cx="662" cy="52" r="5"/><line x1="654" y1="132" x2="696" y2="80" stroke="#000" stroke-width="5" stroke-linecap="round"/><circle cx="703" cy="71" r="5"/><line x1="660" y1="140" x2="721" y2="111" stroke="#000" stroke-width="5" stroke-linecap="round"/><circle cx="731" cy="106" r="5"/><line x1="1788" y1="120" x2="1870" y2="120" stroke="#000" stroke-width="5" stroke-linecap="round"/><circle cx="1883" cy="120" r="5"/><line x1="1785" y1="132" x2="1859" y2="168" stroke="#000" stroke-width="5" stroke-linecap="round"/><circle cx="1871" cy="173" r="5"/><line x1="1777" y1="142" x2="1829" y2="206" stroke="#000" stroke-width="5" stroke-linecap="round"/><circle cx="1837" cy="216" r="5"/><line x1="1766" y1="147" x2="1784" y2="227" stroke="#000" stroke-width="5" stroke-linecap="round"/><circle cx="1787" cy="240" r="5"/><line x1="1754" y1="147" x2="1736" y2="227" stroke="#000" stroke-width="5" stroke-linecap="round"/><circle cx="1733" cy="240" r="5"/><line x1="1743" y1="142" x2="1691" y2="206" stroke="#000" stroke-width="5" stroke-linecap="round"/><circle cx="1683" cy="216" r="5"/><line x1="1735" y1="132" x2="1661" y2="168" stroke="#000" stroke-width="5" stroke-linecap="round"/><circle cx="1649" cy="173" r="5"/><line x1="1732" y1="120" x2="1650" y2="120" stroke="#000" stroke-width="5" stroke-linecap="round"/><circle cx="1637" cy="120" r="5"/><line x1="1735" y1="108" x2="1661" y2="72" stroke="#000" stroke-width="5" stroke-linecap="round"/><circle cx="1649" cy="67" r="5"/><line x1="1743" y1="98" x2="1691" y2="34" stroke="#000" stroke-width="5" stroke-linecap="round"/><circle cx="1683" cy="24" r="5"/><line x1="1754" y1="93" x2="1736" y2="13" stroke="#000" stroke-width="5" stroke-linecap="round"/><circle cx="1733" cy="-0" r="5"/><line x1="1766" y1="93" x2="1784" y2="13" stroke="#000" stroke-width="5" stroke-linecap="round"/><circle cx="1787" cy="-0" r="5"/><line x1="1777" y1="98" x2="1829" y2="34" stroke="#000" stroke-width="5" stroke-linecap="round"/><circle cx="1837" cy="24" r="5"/><line x1="1785" y1="108" x2="1859" y2="72" stroke="#000" stroke-width="5" stroke-linecap="round"/><circle cx="1871" cy="67" r="5"/><line x1="1015" y1="90" x2="1060" y2="90" stroke="#000" stroke-width="5" stroke-linecap="round"/><circle cx="1067" cy="90" r="5"/><line x1="1014" y1="97" x2="1054" y2="116" stroke="#000" stroke-width="5" stroke-linecap="round"/><circle cx="1061" cy="119" r="5"/><line x1="1009" y1="102" x2="1037" y2="137" stroke="#000" stroke-width="5" stroke-linecap="round"/><circle cx="1042" cy="143" r="5"/><line x1="1003" y1="105" x2="1013" y2="148" stroke="#000" stroke-width="5" stroke-linecap="round"/><circle cx="1015" cy="156" r="5"/><line x1="997" y1="105" x2="987" y2="148" stroke="#000" stroke-width="5" stroke-linecap="round"/><circle cx="985" cy="156" r="5"/><line x1="991" y1="102" x2="963" y2="137" stroke="#000" stroke-width="5" stroke-linecap="round"/><circle cx="958" cy="143" r="5"/><line x1="986" y1="97" x2="946" y2="116" stroke="#000" stroke-width="5" stroke-linecap="round"/><circle cx="939" cy="119" r="5"/><line x1="985" y1="90" x2="940" y2="90" stroke="#000" stroke-width="5" stroke-linecap="round"/><circle cx="933" cy="90" r="5"/><line x1="986" y1="83" x2="946" y2="64" stroke="#000" stroke-width="5" stroke-linecap="round"/><circle cx="939" cy="61" r="5"/><line x1="991" y1="78" x2="963" y2="43" stroke="#000" stroke-width="5" stroke-linecap="round"/><circle cx="958" cy="37" r="5"/><line x1="997" y1="75" x2="987" y2="32" stroke="#000" stroke-width="5" stroke-linecap="round"/><circle cx="985" cy="24" r="5"/><line x1="1003" y1="75" x2="1013" y2="32" stroke="#000" stroke-width="5" stroke-linecap="round"/><circle cx="1015" cy="24" r="5"/><line x1="1009" y1="78" x2="1037" y2="43" stroke="#000" stroke-width="5" stroke-linecap="round"/><circle cx="1042" cy="37" r="5"/><line x1="1014" y1="83" x2="1054" y2="64" stroke="#000" stroke-width="5" stroke-linecap="round"/><circle cx="1061" cy="61" r="5"/></g></svg>
