<svg xmlns="http://www.w3.org/2000/svg" viewBox="0 0 2400 600" preserveAspectRatio="xMidYMax slice"><g fill="#000"><polygon points="1000,560 1008,160 1016,140 1024,160 1032,560"/><rect x="0" y="548" width="2400" height="52" rx="0"/><rect x="74" y="465" width="11" height="55" rx="0"/><circle cx="80" cy="456" r="46"/><circle cx="48" cy="479" r="35"/><circle cx="112" cy="479" r="35"/><rect x="224" y="465" width="11" height="55" rx="0"/><circle cx="230" cy="456" r="46"/><circle cx="198" cy="479" r="35"/><circle cx="262" cy="479" r="35"/><rect x="374" y="465" width="11" height="55" rx="0"/><circle cx="380" cy="456" r="46"/><circle cx="348" cy="479" r="35"/><circle cx="412" cy="479" r="35"/><rect x="524" y="465" width="11" height="55" rx="0"/><circle cx="530" cy="456" r="46"/><circle cx="498" cy="479" r="35"/><circle cx="562" cy="479" r="35"/><rect x="674" y="465" width="11" height="55" rx="0"/><circle cx="680" cy="456" r="46"/><circle cx="648" cy="479" r="35"/><circle cx="712" cy="479" r="35"/><rect x="1654" y="465" width="11" height="55" rx="0"/><circle cx="1660" cy="456" r="46"/><circle cx="1628" cy="479" r="35"/><circle cx="1692" cy="479" r="35"/><rect x="1804" y="465" width="11" height="55" rx="0"/><circle cx="1810" cy="456" r="46"/><circle cx="1778" cy="479" r="35"/><circle cx="1842" cy="479" r="35"/><rect x="1954" y="465" width="11" height="55" rx="0"/><circle cx="1960" cy="456" r="46"/><circle cx="1928" cy="479" r="35"/><circle cx="1992" cy="479" r="35"/><rect x="2104" y="465" width="11" height="55" rx="0"/><circle cx="2110" cy="456" r="46"/><circle cx="2078" cy="479" r="35"/><circle cx="2142" cy="479" r="35"/><rect x="2254" y="465" width="11" height="55" rx="0"/><circle cx="2260" cy="456" r="46"/><circle cx="2228" cy="479" r="35"/><circle cx="2292" cy="479" r="35"/></g></svg>
