<svg xmlns="http://www.w3.org/2000/svg" viewBox="0 0 2400 600" preserveAspectRatio="xMidYMax slice"><g fill="#000"><rect x="1180" y="520" width="480" height="14" rx="0"/><rect x="1190" y="534" width="10" height="66" rx="0"/><rect x="1250" y="534" width="10" height="66" rx="0"/><rect x="1310" y="534" width="10" height="66" rx="0"/><rect x="1370" y="534" width="10" height="66" rx="0"/><rect x="1430" y="534" width="10" height="66" rx="0"/><rect x="1490" y="534" width="10" height="66" rx="0"/><rect x="1550" y="534" width="10" height="66" rx="0"/><rect x="1610" y="534" width="10" height="66" rx="0"/><circle cx="1400" cy="430" r="72" fill="none" stroke="#000" stroke-width="12"/><line x1="1400" y1="430" x2="1478" y2="430" stroke="#000" stroke-width="4" stroke-linecap="round"/><line x1="1400" y1="430" x2="1468" y2="469" stroke="#000" stroke-width="4" stroke-linecap="round"/><line x1="1400" y1="430" x2="1439" y2="498" stroke="#000" stroke-width="4" stroke-linecap="round"/><line x1="1400" y1="430" x2="1400" y2="508" stroke="#000" stroke-width="4" stroke-linecap="round"/><line x1="1400" y1="430" x2="1361" y2="498" stroke="#000" stroke-width="4" stroke-linecap="round"/><line x1="1400" y1="430" x2="1332" y2="469" stroke="#000" stroke-width="4" stroke-linecap="round"/><line x1="1400" y1="430" x2="1322" y2="430" stroke="#000" stroke-width="4" stroke-linecap="round"/><line x1="1400" y1="430" x2="1332" y2="391" stroke="#000" stroke-width="4" stroke-linecap="round"/><line x1="1400" y1="430" x2="1361" y2="362" stroke="#000" stroke-width="4" stroke-linecap="round"/><line x1="1400" y1="430" x2="1400" y2="352" stroke="#000" stroke-width="4" stroke-linecap="round"/><line x1="1400" y1="430" x2="1439" y2="362" stroke="#000" stroke-width="4" stroke-linecap="round"/><line x1="1400" y1="430" x2="1468" y2="391" stroke="#000" stroke-width="4" stroke-linecap="round"/><polygon points="1360,520 1400,430 1440,520"/><rect x="0" y="540" width="2400" height="60" rx="0"/></g></svg>
