<svg xmlns="http://www.w3.org/2000/svg" viewBox="0 0 2400 600" preserveAspectRatio="xMidYMax slice"><g fill="#000"><rect x="1422" y="250" width="36" height="170" rx="0"/><polygon points="1422,250 1440,200 1458,250"/><polygon points="1422,420 1400,450 1422,400"/><polygon points="1458,420 1480,450 1458,400"/><ellipse cx="1440" cy="500" rx="70" ry="60"/><ellipse cx="1440" cy="560" rx="120" ry="50"/><rect x="915" y="410" width="90" height="150" rx="0"/><rect x="915" y="405" width="90" height="12" rx="0"/><rect x="1030" y="360" width="60" height="200" rx="0"/><rect x="1030" y="350" width="60" height="10" rx="0"/><rect x="1090" y="430" width="80" height="130" rx="0"/><rect x="1195" y="390" width="50" height="170" rx="0"/><rect x="1195" y="380" width="50" height="10" rx="0"/><rect x="1255" y="450" width="70" height="110" rx="0"/><rect x="0" y="540" width="2400" height="60" rx="0"/></g></svg>
